<svg xmlns="http://www.w3.org/2000/svg" width="88" height="99" viewBox="0 0 88 99" fill="none">
  <path d="M0.84375 0.78125L8.69922 88.9711L43.9477 98.7992L79.2945 88.9352L87.1562 0.78125H0.84375ZM70.8367 20.9859L68.2219 50.3648L68.2297 50.5234L68.2188 50.8883V50.8852L66.3609 71.4273L66.1562 73.2523L44 79.3805L43.9828 79.3961L21.8648 73.2336L20.3672 56.25H31.2133L31.9828 64.8859L44.0031 68.1438L44 68.15V68.1484L56.0648 64.8445L57.3398 50.7812H32.1188L31.9023 48.4039L31.4094 42.8344L31.1508 39.8438H58.2984L59.2859 28.9062H17.9375L17.7211 26.5305L17.2289 20.9594L16.9695 17.9688H71.0953L70.8367 20.9859Z" fill="#1572B6"/>
</svg>