<svg xmlns="http://www.w3.org/2000/svg" width="90" height="100" viewBox="0 0 90 100" fill="none">
  <g clip-path="url(#clip0_66_419)">
    <path d="M22.5045 100C34.922 100 45 92.5333 45 83.3333V66.6666H22.5045C10.087 66.6666 0.00900269 74.1333 0.00900269 83.3333C0.00900269 92.5333 10.087 100 22.5045 100Z" fill="#0ACF83"/>
    <path d="M0.00900269 50C0.00900269 40.8 10.087 33.3333 22.5045 33.3333H45V66.6666H22.5045C10.087 66.6666 0.00900269 59.2 0.00900269 50Z" fill="#A259FF"/>
    <path d="M0.00900269 16.6667C0.00900269 7.46673 10.087 6.10352e-05 22.5045 6.10352e-05H45V33.3334H22.5045C10.087 33.3334 0.00900269 25.8667 0.00900269 16.6667Z" fill="#F24E1E"/>
    <path d="M45 6.10352e-05H67.4955C79.913 6.10352e-05 89.991 7.46673 89.991 16.6667C89.991 25.8667 79.913 33.3334 67.4955 33.3334H45V6.10352e-05Z" fill="#FF7262"/>
    <path d="M89.991 50C89.991 59.2 79.913 66.6666 67.4955 66.6666C55.078 66.6666 45 59.2 45 50C45 40.8 55.078 33.3333 67.4955 33.3333C79.913 33.3333 89.991 40.8 89.991 50Z" fill="#1ABCFE"/>
  </g>
  <defs>
    <clipPath id="clip0_66_419">
      <rect width="90" height="100" fill="white"/>
    </clipPath>
  </defs>
</svg>