<svg xmlns="http://www.w3.org/2000/svg" width="70" height="70" viewBox="0 0 99 100" fill="none">
  <path d="M96.7846 45.6074L53.7244 2.54958C51.2463 0.0698975 47.2244 0.0698975 44.7424 2.54958L35.8026 11.4918L47.1447 22.834C49.7815 21.9441 52.8033 22.541 54.9041 24.6418C55.9053 25.6438 56.6042 26.9074 56.921 28.288C57.2378 29.6686 57.1597 31.1105 56.6955 32.4488L67.6268 43.3816C70.2713 42.4699 73.3237 43.059 75.4346 45.1746C78.3877 48.1254 78.3877 52.909 75.4346 55.8613C74.7328 56.5634 73.8996 57.1204 72.9825 57.5004C72.0654 57.8804 71.0824 58.076 70.0897 58.076C69.097 58.076 68.114 57.8804 67.1969 57.5004C66.2798 57.1204 65.4465 56.5634 64.7447 55.8613C63.6904 54.8063 62.9716 53.4629 62.679 52.0003C62.3864 50.5377 62.5329 49.0213 63.1002 47.6418L52.9065 37.4472L52.9049 64.2761C53.6445 64.6404 54.3198 65.1227 54.9041 65.7043C57.8565 68.6551 57.8565 73.4371 54.9041 76.3941C51.9518 79.3449 47.1666 79.3449 44.2174 76.3941C41.2658 73.4379 41.0237 68.6558 43.9744 65.7043C44.7041 64.9754 45.4237 64.4246 46.2049 64.0558V36.9785C45.4237 36.6097 44.7049 36.0629 43.9737 35.3293C41.7385 33.0949 41.3205 29.8136 42.4674 27.0668L31.3479 15.8847L1.85256 45.4082C-0.627911 47.8902 -0.612286 51.9121 1.86818 54.3926L44.9354 97.4504C47.4143 99.9301 51.4393 99.9301 53.9221 97.4504L96.7815 54.5926C99.2619 52.1113 99.2643 48.0871 96.7846 45.6074Z" fill="#F34F29"/>
</svg>