<svg xmlns="http://www.w3.org/2000/svg" width="70" height="70" viewBox="0 0 100 100" fill="none">
  <g clip-path="url(#clip0_66_387)">
    <mask id="mask0_66_387" style="mask-type:luminance" maskUnits="userSpaceOnUse" x="-10" y="-6" width="121" height="121">
      <path d="M-9.93928 -5.56428H110.496V114.534H-9.93928V-5.56428Z" fill="white"/>
    </mask>
    <g mask="url(#mask0_66_387)">
      <path d="M78.4593 83.9555C78.4593 89.3654 65.8927 93.7507 50.3911 93.7507C34.8895 93.7507 22.3229 89.3654 22.3229 83.9555C22.3229 78.5455 34.8889 74.1586 50.3911 74.1586C65.8933 74.1586 78.4593 78.551 78.4593 83.9555Z" fill="#A0DCF2"/>
    </g>
    <mask id="mask1_66_387" style="mask-type:luminance" maskUnits="userSpaceOnUse" x="34" y="80" width="32" height="28">
      <path d="M57.9306 83.5863C58.1219 82.9669 58.1536 82.0117 56.2367 82.4442C56.2367 82.4442 50.9983 83.1904 50.7485 89.2848L50.6292 100.961H49.3702L49.2514 89.2848C49.0017 83.191 43.7638 82.4442 43.7638 82.4442C41.8525 82.0117 41.8776 82.9658 42.0688 83.5852C40.1898 80.3948 35.1583 80.8073 35.1583 80.8073C33.4114 81.4284 35.0334 82.5476 35.0334 82.5476C37.7766 83.5418 38.0275 86.5276 38.0275 86.5276V94.9622L38.3175 101.483C38.9403 104.388 40.4775 106.105 41.9852 107.115L58.0449 107.097C59.9875 105.782 61.9741 103.291 61.9741 98.5863V86.5276C61.9741 86.5276 62.2234 83.5418 64.9683 82.5476C64.9683 82.5476 66.5886 81.4278 64.8428 80.8073C64.8428 80.8073 64.6298 80.7907 64.2758 80.7895C62.9069 80.7895 59.4249 81.0509 57.9317 83.5863M42.768 95.6072V86.4041C42.768 85.5051 42.6091 84.7489 42.337 84.1134C44.1435 85.5178 44.2645 89.0368 44.2645 89.0368V100.524C42.4664 99.2552 42.768 95.6055 42.768 95.6055M55.7427 89.0352C55.7427 89.0352 55.8637 85.5156 57.6697 84.1117C57.3981 84.7472 57.2392 85.5034 57.2392 86.4025V95.6061C57.2392 95.6061 57.5403 98.9977 55.7427 100.394V89.0352Z" fill="white"/>
    </mask>
    <g mask="url(#mask1_66_387)">
      <path d="M78.4593 83.9555C78.4593 89.3654 65.8927 93.7507 50.3911 93.7507C34.8895 93.7507 22.323 89.3654 22.323 83.9555C22.323 78.5455 34.889 74.1586 50.3911 74.1586C65.8933 74.1586 78.4593 78.551 78.4593 83.9555Z" fill="#82BDE7"/>
    </g>
    <mask id="mask2_66_387" style="mask-type:luminance" maskUnits="userSpaceOnUse" x="-10" y="-6" width="121" height="121">
      <path d="M-9.93928 -5.56428H110.496V114.534H-9.93928V-5.56428Z" fill="white"/>
    </mask>
    <g mask="url(#mask2_66_387)">
      <path d="M18.3296 55.152L17.5195 57.967C17.5195 57.967 17.3087 58.9845 18.27 59.1647C19.2736 59.1452 19.1916 58.2083 19.1214 57.9048L18.3296 55.152Z" fill="#A0DCF2"/>
      <path d="M99.9258 43.3495L99.9999 42.9837C91.7657 41.3418 83.3163 41.3251 78.1989 41.5369C79.0386 38.52 79.2917 35.0483 79.2917 31.1768C79.2917 25.6245 77.1997 21.1826 73.8035 17.8026C74.3974 15.8927 75.1902 11.6498 73.0118 6.21922C73.0118 6.21922 69.1646 5.00268 60.4798 10.8024C57.0753 9.95394 53.4522 9.53471 49.8235 9.53471C45.8313 9.53471 41.7973 10.0418 38.0348 11.071C29.0657 4.96877 25.1069 6.21867 25.1069 6.21867C22.522 12.6684 24.12 17.4334 24.6051 18.6188C21.5674 21.8881 19.7129 26.0604 19.7129 31.1763C19.7129 35.0389 20.1545 38.5034 21.2318 41.5147C16.0759 41.3279 7.93369 41.3996 -0.0117111 42.9826L0.0618883 43.3484C8.0491 41.7555 16.2415 41.6999 21.3611 41.8933C21.5981 42.5161 21.8629 43.1166 22.1585 43.7059C17.0912 43.8688 8.43996 44.5121 0.148311 46.8452L0.24979 47.2038C8.60668 44.8535 17.3338 44.2258 22.3519 44.0735C25.3796 49.7003 31.3484 53.3355 41.9673 54.4708C40.4596 55.4805 38.923 57.1975 38.2985 60.1032C36.245 61.0818 29.7437 63.4737 25.8423 56.7838C25.8423 56.7838 23.6589 52.8028 19.4793 52.4914C19.4793 52.4914 15.4258 52.4358 19.1989 55.0102C19.1989 55.0102 21.9126 56.2851 23.7838 61.0707C23.7838 61.0707 26.2259 69.2412 38.0086 66.6196V75.0599C38.0086 75.0599 37.7593 78.0456 35.0144 79.0398C35.0144 79.0398 33.393 80.1596 35.1393 80.7801C35.1393 80.7801 42.7474 81.4028 42.7474 75.1838V65.9808C42.7474 65.9808 42.4463 62.3306 44.2433 61.0623V76.1897C44.2433 76.1897 44.1195 79.7965 42.2483 81.1648C42.2483 81.1648 41.001 83.4028 43.7449 82.7817C43.7449 82.7817 48.9827 82.0356 49.2325 75.9411L49.3518 60.6437H50.6102L50.7301 75.9411C50.9793 82.035 56.2177 82.7817 56.2177 82.7817C58.961 83.4028 57.7137 81.1648 57.7137 81.1648C55.843 79.7971 55.7187 76.1897 55.7187 76.1897V61.2036C57.5158 62.5936 57.2152 65.9919 57.2152 65.9919V75.195C57.2152 81.4134 64.8227 80.7912 64.8227 80.7912C66.5679 80.1701 64.9482 79.0509 64.9482 79.0509C62.2038 78.0501 61.954 75.071 61.954 75.071V63.0072C61.954 58.3034 59.9674 55.8114 58.0248 54.4964C69.3435 53.3766 74.7832 49.7303 77.2878 44.0646C82.248 44.2002 91.1747 44.8029 99.7133 47.206L99.8148 46.8474C91.3247 44.4593 82.4576 43.8416 77.4467 43.6959C77.6842 43.1232 77.8911 42.5283 78.0751 41.9167C83.1518 41.6943 91.6397 41.7026 99.9063 43.3512" fill="#292929"/>
      <path d="M68.22 30.91C70.6594 33.1134 72.0862 35.775 72.0862 38.6413C72.0862 52.0272 62.0789 52.3903 49.736 52.3903C37.393 52.3903 27.3846 50.5426 27.3846 38.6468C27.3846 35.7989 28.7919 33.1546 31.2012 30.96C35.219 27.3026 42.0203 29.2391 49.7349 29.2391C57.4193 29.2391 64.1949 27.2831 68.2184 30.9155" fill="#F5CDB5"/>
      <path d="M42.3035 39.329C42.3035 43.0154 40.2216 46.0045 37.6534 46.0045C35.0852 46.0045 33.0021 43.0159 33.0021 39.329C33.0021 35.6421 35.0852 32.6547 37.6534 32.6547C40.2216 32.6547 42.3035 35.6421 42.3035 39.329Z" fill="white"/>
      <path d="M40.8109 39.413C40.8109 41.8706 39.417 43.8622 37.7108 43.8622C36.0046 43.8622 34.6107 41.8706 34.6107 39.413C34.6107 36.9554 35.998 34.9616 37.7108 34.9616C39.4237 34.9616 40.8109 36.9543 40.8109 39.413Z" fill="#B1645A"/>
      <path d="M67.2526 39.329C67.2526 43.0154 65.1707 46.0045 62.6014 46.0045C60.0321 46.0045 57.9512 43.0159 57.9512 39.329C57.9512 35.6421 60.0338 32.6547 62.6014 32.6547C65.169 32.6547 67.2526 35.6421 67.2526 39.329Z" fill="white"/>
      <path d="M65.76 39.413C65.76 41.8706 64.3661 43.8622 62.6599 43.8622C60.9537 43.8622 59.5598 41.8706 59.5598 39.413C59.5598 36.9554 60.9537 34.9616 62.6599 34.9616C64.3661 34.9616 65.76 36.9543 65.76 39.413ZM50.9643 45.2511C50.9643 45.8916 50.4435 46.4109 49.8012 46.4109C49.1589 46.4109 48.6381 45.8916 48.6381 45.2511C48.6381 44.6106 49.1583 44.0912 49.8012 44.0912C50.4441 44.0912 50.9643 44.6106 50.9643 45.2511ZM47.092 48.184C47.0756 48.1379 47.0685 48.0889 47.0711 48.04C47.0737 47.9911 47.086 47.9432 47.1071 47.899C47.1283 47.8548 47.158 47.8152 47.1945 47.7824C47.2311 47.7497 47.2737 47.7244 47.32 47.7081C47.3663 47.6918 47.4154 47.6847 47.4644 47.6873C47.5135 47.6899 47.5616 47.7021 47.6059 47.7232C47.6502 47.7443 47.6899 47.774 47.7227 47.8104C47.7556 47.8468 47.7809 47.8893 47.7973 47.9355C48.0961 48.7779 48.8974 49.3439 49.7917 49.3439C50.6861 49.3439 51.4867 48.7779 51.7867 47.9355C51.8031 47.8894 51.8284 47.8469 51.8612 47.8105C51.8941 47.7741 51.9337 47.7445 51.978 47.7234C52.0223 47.7023 52.0704 47.6901 52.1194 47.6876C52.1684 47.685 52.2174 47.692 52.2637 47.7084C52.31 47.7247 52.3526 47.7499 52.3891 47.7827C52.4256 47.8154 52.4552 47.855 52.4764 47.8992C52.4975 47.9433 52.5098 47.9912 52.5123 48.0401C52.5149 48.089 52.5078 48.1379 52.4915 48.184C52.2905 48.7372 51.9235 49.2152 51.4405 49.553C50.9574 49.8908 50.3817 50.0721 49.7917 50.0721C49.2017 50.0721 48.626 49.8908 48.143 49.553C47.6599 49.2152 47.2929 48.7372 47.092 48.184Z" fill="#B1645A"/>
      <path d="M21.3071 53.4923C21.3071 53.802 20.9435 54.0516 20.4958 54.0516C20.0481 54.0516 19.6851 53.8014 19.6851 53.4923C19.6851 53.1831 20.0475 52.9318 20.4958 52.9318C20.9441 52.9318 21.3071 53.182 21.3071 53.4923ZM23.553 54.735C23.553 55.0446 23.1894 55.2954 22.7417 55.2954C22.294 55.2954 21.931 55.0452 21.931 54.735C21.931 54.4247 22.2934 54.1756 22.7417 54.1756C23.19 54.1756 23.553 54.4258 23.553 54.735ZM24.9257 56.3474C24.9257 56.656 24.5633 56.9067 24.1144 56.9067C23.6656 56.9067 23.3043 56.6565 23.3043 56.3474C23.3043 56.0382 23.6667 55.7869 24.1144 55.7869C24.5622 55.7869 24.9257 56.0371 24.9257 56.3474ZM26.1719 58.2139C26.1719 58.5236 25.8094 58.7744 25.3617 58.7744C24.914 58.7744 24.5504 58.5242 24.5504 58.2139C24.5504 57.9037 24.9129 57.6534 25.3617 57.6534C25.8106 57.6534 26.1719 57.9037 26.1719 58.2139ZM27.5446 59.9614C27.5446 60.27 27.1822 60.5208 26.7339 60.5208C26.2856 60.5208 25.9226 60.2706 25.9226 59.9614C25.9226 59.6523 26.2862 59.401 26.7339 59.401C27.1816 59.401 27.5446 59.6512 27.5446 59.9614ZM29.4164 61.4532C29.4164 61.7629 29.054 62.0137 28.6051 62.0137C28.1563 62.0137 27.795 61.7635 27.795 61.4532C27.795 61.143 28.1574 60.8939 28.6051 60.8939C29.0528 60.8939 29.4164 61.1441 29.4164 61.4532Z" fill="#C5E6DA"/>
      <path d="M32.0358 62.449C32.0358 62.7576 31.6734 63.0084 31.2251 63.0084C30.7768 63.0084 30.4139 62.7582 30.4139 62.449C30.4139 62.1399 30.7763 61.8886 31.2251 61.8886C31.674 61.8886 32.0358 62.1388 32.0358 62.449Z" fill="#C5E6DA"/>
      <path d="M34.643 62.449C34.643 62.7576 34.2806 63.0084 33.8323 63.0084C33.3841 63.0084 33.0211 62.7582 33.0211 62.449C33.0211 62.1399 33.3835 61.8886 33.8323 61.8886C34.2812 61.8886 34.643 62.1388 34.643 62.449Z" fill="#C5E6DA"/>
      <path d="M37.2893 62.0159C37.2893 62.3256 36.9269 62.5764 36.4786 62.5764C36.0303 62.5764 35.6673 62.3261 35.6673 62.0159C35.6673 61.7056 36.0297 61.4554 36.4786 61.4554C36.9274 61.4554 37.2893 61.7056 37.2893 62.0159Z" fill="#C5E6DA"/>
    </g>
  </g>
  <defs>
    <clipPath id="clip0_66_387">
      <rect width="100" height="100" fill="white"/>
    </clipPath>
  </defs>
</svg>