<svg xmlns="http://www.w3.org/2000/svg" width="88" height="100" viewBox="0 0 88 100" fill="none">
  <path d="M0.296484 3.3104L6.78668 86.3408C6.88412 87.5876 7.72807 88.6508 8.92029 89.0288L43.0719 99.8565C43.6758 100.048 44.3242 100.048 44.9281 99.8565L79.0797 89.0288C80.2719 88.6508 81.1159 87.5876 81.2133 86.3408L87.7035 3.3104C87.8431 1.52529 86.4323 0 84.6419 0H3.35835C1.56794 0 0.157131 1.52529 0.296484 3.3104ZM71.0598 29.0719H28.762L30.0385 40.8433H70.1399L67.5166 74.4018L44.0001 81.8575L20.4837 74.4018L19.1132 56.8694H31.4564V65.4693L44.33 68.9243L57.1265 65.4693L58.1193 51.7636H18.714L16.0978 18.2931H71.9022L71.0598 29.0719Z" fill="#FC490B"/>
</svg>