<svg xmlns="http://www.w3.org/2000/svg" width="88" height="88" viewBox="0 0 88 88" fill="none">
  <path d="M0.25 0.25H87.75V87.75H0.25V0.25ZM23.2431 73.3611C25.1875 77.4931 29.0278 80.8958 35.5903 80.8958C42.8819 80.8958 47.8889 77.0069 47.8889 68.5V40.4028H39.625V68.3056C39.625 72.4861 37.9236 73.5556 35.25 73.5556C32.4306 73.5556 31.2639 71.6111 29.9514 69.3264L23.2431 73.3611ZM52.3125 72.4861C54.7431 77.25 59.6528 80.8958 67.3333 80.8958C75.1111 80.8958 80.9444 76.8611 80.9444 69.4236C80.9444 62.5694 77.0069 59.5069 70.0069 56.4931L67.9653 55.6181C64.4167 54.1111 62.9097 53.0903 62.9097 50.6597C62.9097 48.6667 64.4167 47.1111 66.8472 47.1111C69.1806 47.1111 70.7361 48.1319 72.1458 50.6597L78.5139 46.4306C75.8403 41.7639 72.0486 39.9653 66.8472 39.9653C59.5069 39.9653 54.7917 44.6319 54.7917 50.8056C54.7917 57.5139 58.7292 60.6736 64.6597 63.2014L66.7014 64.0764C70.4931 65.7292 72.7292 66.75 72.7292 69.5694C72.7292 71.9028 70.5417 73.6042 67.1389 73.6042C63.1042 73.6042 60.7708 71.5139 59.0208 68.5972L52.3125 72.4861Z" fill="#FFCA28"/>
</svg>