<svg width="50" height="49" viewBox="0 0 50 49" fill="none" xmlns="http://www.w3.org/2000/svg">
<path d="M42.1428 33.3524C42.5728 33.0734 42.8385 32.5566 42.8401 31.9963L42.8651 22.9129C42.8667 22.3527 43.1324 21.8358 43.5623 21.5568L47.9194 18.7283C48.3492 18.4494 48.8779 18.4504 49.3068 18.731C49.7358 19.0115 50 19.5291 50 20.0892V36.6031C50 37.1651 49.734 37.6841 49.3028 37.964L32.8592 48.6373C32.4319 48.9146 31.9065 48.9152 31.4787 48.6389L18.5741 40.298C18.1414 40.0186 17.8743 39.4987 17.8741 38.9355V30.6087C17.8741 30.5993 17.8838 30.593 17.8922 30.5978C17.8991 30.6025 17.9088 30.5978 17.9088 30.5868V30.5774C17.9088 30.5711 17.9116 30.5648 17.9172 30.5617L28.5452 23.6616C28.555 23.6554 28.5508 23.6381 28.5397 23.6381C28.5335 23.6381 28.5286 23.6325 28.5286 23.6255L28.5494 15.462C28.5514 14.9001 28.2874 14.3799 27.8573 14.098C27.4272 13.8161 26.8966 13.8155 26.466 14.0964L18.5672 19.24C18.1382 19.5192 17.6101 19.5192 17.181 19.24L9.2572 14.0839C8.82756 13.8043 8.29862 13.8047 7.86933 14.085C7.44004 14.3653 7.1755 14.8829 7.1752 15.4431V30.1975C7.17554 30.7572 6.91215 31.2747 6.48392 31.5558C6.05568 31.8369 5.5274 31.8391 5.09737 31.5615L0.700023 28.7205C0.266436 28.4406 -0.000833316 27.9192 1.95207e-06 27.3549L0.0388939 1.5662C0.0399711 1.00669 0.304519 0.490127 0.733276 0.210339C1.16203 -0.0694486 1.69016 -0.0701558 2.11951 0.208483L17.1824 9.9856C17.6107 10.2636 18.1375 10.2636 18.5658 9.9856L33.6245 0.208483C34.0545 -0.070573 34.5836 -0.0694153 35.0126 0.21152C35.4416 0.492456 35.7056 1.01055 35.7052 1.57091V27.3659C35.7054 27.9276 35.44 28.4465 35.0093 28.7268L27.123 33.8594C26.6918 34.1403 26.4266 34.6604 26.4277 35.2229C26.4289 35.7853 26.6962 36.304 27.1285 36.5827L31.4787 39.3813C31.9064 39.6565 32.4311 39.6553 32.8579 39.3782L42.1428 33.3524ZM43.0554 10.2132C43.0558 10.7783 43.3249 11.2995 43.7601 11.5779C44.1953 11.8563 44.7293 11.8488 45.1582 11.5584L49.325 8.73305C49.7434 8.44972 49.9996 7.93912 50 7.38789V1.63055C49.9991 1.06573 49.7297 0.545004 49.2947 0.267015C48.8596 -0.0109751 48.3259 -0.00335685 47.8972 0.286963L43.7304 3.11227C43.312 3.3956 43.0557 3.9062 43.0554 4.45743V10.2148V10.2132Z" fill="#007FFF"/>
</svg>
