<svg width="122" height="109" viewBox="0 0 122 109" fill="none" xmlns="http://www.w3.org/2000/svg">
<path d="M57.0092 0.0850912C56.7471 0.106378 55.9132 0.180883 55.1627 0.2341C37.8533 1.6284 21.6398 9.9729 11.3709 22.7983C5.6527 29.9294 1.99544 38.0185 0.613545 46.5865C0.125116 49.5773 0.0655518 50.4607 0.0655518 54.5159C0.0655518 58.5711 0.125116 59.4545 0.613545 62.4453C3.92533 82.8915 20.2103 100.07 42.2968 106.435C46.2519 107.574 50.4214 108.351 55.1627 108.819C57.0092 109 64.9908 109 66.8373 108.819C75.0215 108.01 81.9548 106.201 88.7928 103.082C89.8411 102.603 90.0437 102.475 89.9007 102.369C89.8054 102.305 85.3381 96.9515 79.9773 90.4803L70.2325 78.7192L58.0218 62.573C51.3029 53.6964 45.7753 46.4375 45.7277 46.4375C45.68 46.4269 45.6324 53.6006 45.6086 62.3602C45.5728 77.6974 45.5609 78.3148 45.3465 78.6766C45.0367 79.1982 44.7985 79.411 44.2981 79.6452C43.9169 79.8155 43.5834 79.8474 41.7845 79.8474H39.7236L39.1756 79.5388C38.8182 79.3365 38.5561 79.0704 38.3774 78.7618L38.1273 78.2828L38.1511 56.9426L38.1868 35.5918L38.5561 35.1767C38.7467 34.9532 39.1518 34.6658 39.4377 34.5274C39.9261 34.3146 40.1167 34.2933 42.1776 34.2933C44.6079 34.2933 45.0129 34.3784 45.6443 34.9957C45.823 35.166 52.4347 44.064 60.3448 54.782C68.255 65.5 79.0719 80.1348 84.385 87.3191L94.0345 100.379L94.5229 100.091C98.8473 97.5795 103.422 94.0033 107.043 90.278C114.751 82.3699 119.719 72.7269 121.387 62.4453C121.875 59.4545 121.934 58.5711 121.934 54.5159C121.934 50.4607 121.875 49.5773 121.387 46.5865C118.075 26.1404 101.79 8.96176 79.7033 2.59696C75.8078 1.46875 71.6621 0.69177 67.016 0.223457C65.8724 0.117022 57.998 -5.67079e-05 57.0092 0.0850912ZM81.9548 33.0161C82.5266 33.2715 82.9912 33.7611 83.158 34.272C83.2533 34.5487 83.2771 40.4665 83.2533 53.8028L83.2176 72.9398L79.4412 67.7671L75.6529 62.5943V48.6833C75.6529 39.6895 75.7005 34.6339 75.772 34.3891C75.9626 33.793 76.3796 33.3247 76.9514 33.048C77.4398 32.8245 77.6185 32.8032 79.4888 32.8032C81.252 32.8032 81.5617 32.8245 81.9548 33.0161Z" fill="black"/>
</svg>
