<svg xmlns="http://www.w3.org/2000/svg" width="100" height="100" viewBox="0 0 100 100" fill="none">
  <path d="M82.2201 32.4119C81.1827 32.0105 80.1078 31.6308 79.001 31.2717C79.1829 30.4373 79.3498 29.6136 79.4983 28.8039C81.9351 15.5092 80.3418 4.79887 74.9013 1.27257C69.6845 -2.10869 61.1529 1.41681 52.5363 9.84504C51.7077 10.6555 50.8768 11.5136 50.0463 12.4128C49.4929 11.8179 48.9404 11.2429 48.3893 10.6929C39.3589 1.6809 30.3073 -2.11689 24.8721 1.41961C19.6603 4.81067 18.1169 14.8794 20.3104 27.4789C20.5222 28.6959 20.7698 29.9387 21.0498 31.2023C19.7687 31.611 18.532 32.0468 17.3486 32.5103C6.76146 36.659 0 43.161 0 49.9053C0 56.8709 7.25843 63.8575 18.2858 68.0938C19.156 68.4281 20.059 68.7442 20.9896 69.0443C20.6875 70.4109 20.4248 71.7501 20.2043 73.0563C18.1128 85.4372 19.7461 95.2681 24.944 98.6377C30.313 102.118 39.3236 98.5407 48.0977 89.9204C48.7912 89.239 49.4872 88.5163 50.1844 87.7589C51.0881 88.737 51.9904 89.6627 52.8879 90.531C61.3866 98.7509 69.7805 102.07 74.9736 98.6911C80.3372 95.2012 82.0803 84.6405 79.8173 71.7917C79.6444 70.8104 79.4433 69.8079 79.2174 68.7876C79.8502 68.5773 80.4714 68.3603 81.0771 68.1346C92.5411 63.8655 100 56.9639 100 49.9053C100 43.1366 93.0205 36.5908 82.2201 32.4119ZM79.7336 63.577C79.1868 63.7804 78.6257 63.9771 78.054 64.1678C76.7884 59.6646 75.0804 54.8761 72.9901 49.9287C74.9848 45.0992 76.6268 40.3719 77.857 35.898C78.8799 36.2307 79.8728 36.5816 80.8295 36.9519C90.0833 40.5324 95.728 45.8262 95.728 49.9053C95.728 54.2503 89.6319 59.8906 79.7336 63.577ZM75.6265 72.7242C76.6272 78.4058 76.7701 83.5426 76.1072 87.5583C75.5117 91.1666 74.3139 93.5723 72.833 94.5358C69.6815 96.5861 62.9421 93.921 55.6739 86.8912C54.8407 86.0854 54.0014 85.2249 53.1595 84.3142C55.9772 80.8506 58.7933 76.8239 61.5418 72.3519C66.3761 71.8698 70.9433 71.0815 75.0852 70.0054C75.2892 70.9303 75.4704 71.8374 75.6265 72.7242ZM34.0923 94.1815C31.0132 95.4037 28.561 95.4387 27.0786 94.478C23.9243 92.4332 22.6129 84.5399 24.4017 73.9518C24.6065 72.7392 24.8504 71.4936 25.1315 70.2204C29.2279 71.2386 33.7617 71.9712 38.6076 72.4127C41.3745 76.7887 44.272 80.811 47.1919 84.3328C46.5539 85.0251 45.9185 85.6841 45.2866 86.3051C41.4068 90.1168 37.5187 92.8213 34.0923 94.1815ZM19.6674 63.5504C14.7913 61.6772 10.7645 59.2426 8.00424 56.586C5.52401 54.1987 4.27179 51.8285 4.27179 49.9053C4.27179 45.8126 9.70057 40.5924 18.7548 37.0443C19.8534 36.6138 21.0035 36.208 22.197 35.8269C23.4483 40.402 25.0898 45.1852 27.0707 50.0222C25.0642 54.9309 23.3993 59.7904 22.1357 64.419C21.2849 64.1442 20.4606 63.8549 19.6674 63.5504ZM24.5028 26.5568C22.6235 15.7619 23.8716 7.61854 27.0124 5.57511C30.3578 3.39823 37.7556 6.502 45.5527 14.2834C46.0511 14.7808 46.5515 15.3013 47.0532 15.8399C44.1478 19.3464 41.2768 23.3384 38.5344 27.6886C33.8313 28.1786 29.3294 28.9656 25.1902 30.0195C24.93 28.843 24.6994 27.687 24.5028 26.5568ZM67.6382 38.5284C66.6488 36.6074 65.6329 34.7318 64.5973 32.9074C67.7879 33.3608 70.8449 33.9626 73.7157 34.699C72.8538 37.8035 71.7796 41.0496 70.5151 44.3772C69.608 42.4416 68.6486 40.49 67.6382 38.5284ZM50.0477 19.2714C52.0181 21.6707 53.9914 24.3496 55.9323 27.2561C53.9765 27.1522 51.9964 27.0982 50 27.0982C48.0224 27.0982 46.057 27.151 44.1132 27.2531C46.0561 24.3736 48.0465 21.6983 50.0477 19.2714ZM32.3445 38.5616C31.3561 40.488 30.4145 42.429 29.5216 44.3736C28.2776 41.0576 27.2133 37.7967 26.344 34.6482C29.1971 33.9305 32.2397 33.3438 35.41 32.899C34.3598 34.7402 33.3356 36.63 32.3445 38.5616ZM35.5013 67.2541C32.2258 66.8434 29.1375 66.2868 26.2851 65.589C27.1683 62.3842 28.256 59.0538 29.5264 55.6663C30.4216 57.6095 31.3669 59.5513 32.3614 61.4819C33.3744 63.4487 34.424 65.3753 35.5013 67.2541ZM50.1659 80.8778C48.1412 78.4224 46.1216 75.7064 44.1492 72.7848C46.0639 72.8693 48.016 72.9125 50 72.9125C52.0383 72.9125 54.0532 72.8609 56.0365 72.7616C54.0892 75.7358 52.123 78.456 50.1659 80.8778ZM70.5558 55.4937C71.8924 58.9177 73.0191 62.2308 73.9138 65.3809C71.0143 66.1244 67.8839 66.7232 64.5856 67.1681C65.6237 65.3191 66.6484 63.4113 67.6553 61.4489C68.674 59.4635 69.6413 57.4751 70.5558 55.4937ZM63.9549 59.0502C62.3917 62.0965 60.7869 65.0046 59.1577 67.7497C56.1903 67.9882 53.1246 68.111 50 68.111C46.8881 68.111 43.861 68.0024 40.9461 67.7897C39.2512 65.0086 37.6115 62.0919 36.0583 59.0764C34.5091 56.069 33.0837 53.0363 31.7918 50.0206C33.0834 46.9978 34.5054 43.9617 36.0456 40.9597L36.0453 40.9603C37.5896 37.9504 39.2149 35.0479 40.8941 32.2842C43.8681 32.0315 46.9178 31.8997 49.9998 31.8997C53.0958 31.8997 56.1495 32.0326 59.1226 32.2874C60.7762 35.0309 62.3905 37.924 63.9409 40.9343C65.5088 43.9785 66.9492 46.9944 68.2518 49.9523C66.9531 52.9611 65.516 56.0074 63.9549 59.0502ZM72.7675 5.43226C76.1161 7.60274 77.4184 16.3563 75.3144 27.8348C75.1802 28.5673 75.0291 29.3133 74.865 30.0693C70.7162 28.9934 66.211 28.1928 61.4943 27.6954C58.7465 23.2974 55.8991 19.2992 53.0409 15.8377C53.8093 15.0068 54.5767 14.2146 55.3409 13.467C62.7235 6.24572 69.6236 3.39463 72.7675 5.43226ZM50 39.8688C54.9316 39.8688 58.9297 44.3622 58.9297 49.9053C58.9297 55.4482 54.9316 59.9418 50 59.9418C45.0684 59.9418 41.0703 55.4482 41.0703 49.9053C41.0703 44.3622 45.0684 39.8688 50 39.8688Z" fill="#257BC2"/>
</svg>