<svg xmlns="http://www.w3.org/2000/svg" width="100" height="76" viewBox="0 0 100 76" fill="none">
  <path d="M86.0844 43.5625C82.5876 43.5828 79.561 44.4219 77.0219 45.6719C76.0844 43.8156 75.1469 42.1953 74.9907 40.9844C74.8141 39.5781 74.6001 38.7188 74.8141 37.0391C75.0282 35.3594 76.0063 32.9766 76.0063 32.7813C75.9876 32.6047 75.7907 31.7453 73.7798 31.7266C71.7688 31.7078 70.0298 32.1172 69.8344 32.6453C69.4856 33.6211 69.2047 34.6198 68.9938 35.6344C68.6423 37.4703 64.9704 43.975 62.8798 47.3938C62.1954 46.0656 61.6095 44.8938 61.4923 43.9563C61.3157 42.55 61.1016 41.6906 61.3157 40.011C61.5298 38.3313 62.5079 35.9485 62.5079 35.7531C62.4891 35.5766 62.2923 34.7172 60.2813 34.6985C58.2704 34.6797 56.5313 35.0891 56.336 35.6172C56.1407 36.1453 55.9251 37.3953 55.4954 38.6063C55.0844 39.8172 50.2016 50.6781 48.9329 53.5094C48.2876 54.9547 47.722 56.1078 47.311 56.8891C46.9001 57.6703 47.2923 56.9485 47.2532 57.0266L46.7063 58.0625V58.0813C46.4329 58.5703 46.1391 59.0391 46.0032 59.0391C45.9063 59.0391 45.7094 57.7297 46.0423 55.9328C46.7657 52.1625 48.5235 46.2828 48.5032 46.0688C48.5032 45.9719 48.836 44.936 47.3704 44.4078C45.9438 43.8797 45.436 44.7594 45.3188 44.7594C45.2016 44.7594 45.1032 45.0719 45.1032 45.0719C45.1032 45.0719 46.686 38.45 42.0751 38.45C39.1844 38.45 35.2001 41.5953 33.2266 44.4656L23.2641 49.9156L23.0485 49.6813C17.4657 43.7188 7.13289 39.5 7.56257 31.4922C7.71882 28.5813 8.73445 20.9047 27.4063 11.6078C42.7001 3.99064 54.9485 6.07971 57.0782 10.7281C60.1063 17.3688 50.5345 29.7125 34.6345 31.4938C28.5798 32.1781 25.3954 29.8328 24.5938 28.9547C23.7532 28.036 23.636 27.9969 23.3235 28.1735C22.8157 28.4469 23.1282 29.2672 23.3235 29.7563C23.7923 30.9875 25.7454 33.175 29.0657 34.2688C31.9766 35.2266 39.086 35.7531 47.6813 32.4328C57.311 28.7016 64.8313 18.35 62.6235 9.69846C60.3766 0.889082 45.7673 -2.00154 31.9563 2.90158C23.7344 5.82814 14.8438 10.3969 8.43757 16.3938C0.804761 23.5031 -0.406176 29.7156 0.100074 32.2938C1.8782 41.4938 14.5532 47.4906 19.6313 51.925L18.9282 52.3156C16.3891 53.5656 6.72039 58.625 4.29851 63.9766C1.56414 70.0313 4.7282 74.3875 6.83757 74.9734C13.361 76.7906 20.0407 73.5281 23.6548 68.1563C27.2485 62.7844 26.8188 55.8125 25.1594 52.6281L25.1001 52.511L27.0923 51.3391C28.3813 50.5766 29.6516 49.8735 30.7641 49.2688C30.1391 50.9688 29.6891 52.9797 29.4548 55.9094C29.1813 59.3469 30.5876 63.8 32.4438 65.5594C33.2641 66.3219 34.2407 66.3406 34.847 66.3406C36.9954 66.3406 37.972 64.5625 39.047 62.4344C40.3751 59.836 41.547 56.8281 41.547 56.8281C41.547 56.8281 40.0813 64.9735 44.086 64.9735C45.5516 64.9735 47.0157 63.0781 47.6798 62.1016V62.1203C47.6798 62.1203 47.7188 62.061 47.797 61.925C47.9532 61.6906 48.0313 61.5531 48.0313 61.5531V61.5141C48.6173 60.4985 49.9266 58.1735 51.8798 54.3266C54.4001 49.3656 56.822 43.1547 56.822 43.1547C56.822 43.1547 57.0563 44.6781 57.7798 47.1781C58.2094 48.6625 59.147 50.2844 59.8704 51.8656L58.9329 53.1547L58.9516 53.175C58.4517 53.8375 57.937 54.4887 57.4079 55.1281C55.4157 57.511 53.0329 60.2266 52.7204 61.0078C52.3485 61.9266 52.4266 62.6094 53.1501 63.1563C53.6782 63.5469 54.6157 63.625 55.611 63.5469C57.4079 63.4297 58.6579 62.9797 59.2829 62.7063C60.4105 62.3043 61.4757 61.7451 62.4469 61.0453C64.4001 59.6 65.5923 57.5485 65.4751 54.8141C65.4157 53.3094 64.9282 51.825 64.322 50.4188L64.8501 49.6375C67.936 45.125 70.3188 40.1641 70.3188 40.1641C70.3188 40.1641 70.5532 41.6875 71.2766 44.1875C71.6485 45.4578 72.3907 46.8438 73.0548 48.211C70.1641 50.575 68.3469 53.3094 67.7219 55.1063C66.5688 58.4266 67.4673 59.9313 69.1673 60.2828C69.9298 60.4391 71.0235 60.0875 71.8438 59.736C72.8595 59.4031 74.0907 58.8375 75.2235 57.9969C77.1766 56.5516 79.0516 54.5391 78.9548 51.825C78.8954 50.575 78.5641 49.3438 78.1141 48.1719C80.5751 47.1563 83.7595 46.5703 87.8016 47.0578C96.4938 48.0735 98.2126 53.5031 97.8798 55.7688C97.547 58.0344 95.7313 59.2844 95.1251 59.675C94.5188 60.0469 94.3235 60.1828 94.3829 60.4563C94.461 60.8672 94.7345 60.8469 95.2626 60.7688C95.986 60.6516 99.8329 58.9125 99.9891 54.7328C100.224 49.361 95.1251 43.5016 86.0829 43.561L86.0844 43.5625ZM19.0469 66.1641C16.1751 69.3094 12.1329 70.5 10.4141 69.4844C8.55789 68.4094 9.28132 63.7813 12.8173 60.4406C14.9657 58.4094 17.7594 56.5344 19.5954 55.3813L21.3735 54.3063C21.4907 54.2281 21.5688 54.1891 21.5688 54.1891C21.7063 54.111 21.8626 54.0125 22.0188 53.9156C23.3282 58.6813 22.0782 62.861 19.0501 66.1625L19.0469 66.1641ZM40.0469 51.886C39.0501 54.3281 36.9407 60.5969 35.672 60.2453C34.5782 59.9516 33.9141 55.2063 35.4563 50.5172C36.2376 48.1531 37.8985 45.3406 38.8751 44.2469C40.4579 42.4891 42.1766 41.9031 42.6063 42.625C43.1141 43.5625 40.6719 50.361 40.0469 51.886ZM57.3719 60.1672C56.9423 60.3828 56.5516 60.5391 56.3751 60.4219C56.2376 60.3438 56.5516 60.05 56.5516 60.05C56.5516 60.05 58.7204 57.725 59.5798 56.6516L61.2798 54.4828V54.7172C61.2798 57.5297 58.5845 59.4047 57.3735 60.1672H57.3719ZM70.7313 57.1203C70.4188 56.886 70.4579 56.1625 71.5126 53.8969C71.9235 52.9985 72.861 51.4938 74.4813 50.0688C74.6766 50.6547 74.7938 51.2219 74.7751 51.7485C74.7548 55.2641 72.2548 56.5735 70.7313 57.1203Z" fill="#CF649A"/>
</svg>