<svg width="83" height="65" viewBox="0 0 83 65" fill="none" xmlns="http://www.w3.org/2000/svg">
<path d="M41.5 0C30.433 0 23.5165 7.22237 20.7495 21.6658C24.9 14.4434 29.7418 11.736 35.2747 13.5409C38.432 14.5708 40.6884 17.5613 43.1866 20.8704C47.2551 26.2607 51.964 32.4993 62.2505 32.4993C73.3165 32.4993 80.234 25.277 83 10.8322C78.8505 18.0546 74.0088 20.7633 68.4747 18.9584C65.3185 17.9286 63.0621 14.938 60.5639 11.629C56.4954 6.23861 51.7855 0 41.5 0ZM20.7495 32.4993C9.68351 32.4993 2.76597 39.7217 0 54.1664C4.14948 46.9441 8.99124 44.2353 14.5253 46.0416C17.6815 47.0728 19.9379 50.062 22.4361 53.3697C26.5046 58.76 31.2145 65 41.5 65C52.567 65 59.4835 57.7776 62.2505 43.3329C58.1 50.5553 53.2583 53.264 47.7253 51.4577C44.568 50.4292 42.3116 47.4373 39.8134 44.1296C35.7449 38.7393 31.036 32.4993 20.7495 32.4993Z" fill="#06B6D4"/>
</svg>
