<svg xmlns="http://www.w3.org/2000/svg" width="100" height="100" viewBox="0 0 100 100" fill="none">
  <path d="M2.85788 35.7473C2.85788 35.7473 0.490667 34.0097 3.33133 31.6894L9.94967 25.6629C9.94967 25.6629 11.8434 23.634 13.8457 25.4018L74.9199 72.489V95.0683C74.9199 95.0683 74.8903 98.6139 70.4222 98.2222L2.85788 35.7473Z" fill="#2489CA"/>
  <path d="M18.5999 50.3013L2.85789 64.8755C2.85789 64.8755 1.24029 66.1009 2.85789 68.2905L10.1667 75.0603C10.1667 75.0603 11.9026 76.9586 14.4671 74.7991L31.156 61.9124L18.5999 50.3013Z" fill="#1070B3"/>
  <path d="M46.2371 50.4218L75.1073 27.9731L74.9199 5.51424C74.9199 5.51424 73.687 0.612675 69.5739 3.1639L31.156 38.7706L46.2371 50.4218Z" fill="#0877B9"/>
  <path d="M70.4222 98.2523C72.0989 100 74.1308 99.4275 74.1308 99.4275L96.6292 88.1378C99.5093 86.139 99.1049 83.6581 99.1049 83.6581V16.2415C99.1049 13.2784 96.1262 12.2539 96.1262 12.2539L76.6262 2.6818C72.3653 -2.02656e-06 69.5739 3.16392 69.5739 3.16392C69.5739 3.16392 73.1642 0.532341 74.9199 5.51426V94.6565C74.9199 95.2692 74.7917 95.8718 74.5352 96.4142C74.0223 97.4689 72.9077 98.4532 70.2348 98.0414L70.4222 98.2523Z" fill="#3C99D4"/>
</svg>